<?xml version="1.0" encoding="UTF-8"?><svg id="a" xmlns="http://www.w3.org/2000/svg" width="579.38" height="89.82" viewBox="0 0 579.38 89.82"><path d="M0,88.48V1.17h32.64c6.68,0,12.3,1.17,16.88,3.52s8.03,5.62,10.37,9.81c2.34,4.2,3.52,9.07,3.52,14.62s-1.18,10.37-3.54,14.47-5.85,7.27-10.46,9.49-10.27,3.34-16.99,3.34H9.08v-12.95h21.27c3.95,0,7.17-.56,9.67-1.67s4.36-2.74,5.57-4.89c1.21-2.15,1.82-4.75,1.82-7.79s-.61-5.79-1.82-8c-1.21-2.21-3.08-3.9-5.6-5.07s-5.77-1.76-9.76-1.76h-14.59v74.18H0ZM49.1,88.48l-21.21-39.61h17.11l21.62,39.61h-17.52Z" fill="#020617"/><path d="M78.28,88.48V1.17h56.72v13.18h-41.07v23.55h38.03v13.01h-38.03v24.38h41.31v13.18h-56.95Z" fill="#020617"/><path d="M188.61,89.65c-8.05,0-15.1-1.82-21.15-5.45s-10.78-8.79-14.18-15.47-5.1-14.61-5.1-23.79,1.75-17.47,5.24-24.17c3.5-6.7,8.25-11.84,14.27-15.41s12.83-5.36,20.45-5.36c4.8,0,9.29.7,13.45,2.11s7.87,3.41,11.13,6.01c3.26,2.6,5.94,5.67,8.03,9.23,2.09,3.56,3.47,7.46,4.13,11.72h-16c-.7-2.34-1.67-4.43-2.9-6.27-1.23-1.84-2.71-3.42-4.45-4.75-1.74-1.33-3.71-2.33-5.92-3.02-2.21-.68-4.64-1.03-7.29-1.03-4.69,0-8.88,1.19-12.57,3.57-3.69,2.38-6.59,5.86-8.7,10.43s-3.16,10.18-3.16,16.82,1.05,12.14,3.16,16.73c2.11,4.59,5.02,8.09,8.73,10.49s8.01,3.6,12.89,3.6c4.45,0,8.31-.86,11.57-2.58s5.78-4.16,7.56-7.32,2.67-6.89,2.67-11.19l3.57.59h-23.73v-12.3h35.33v10.49c0,7.46-1.59,13.92-4.78,19.37s-7.56,9.64-13.12,12.57-11.94,4.39-19.13,4.39Z" fill="#020617"/><path d="M256.46,1.17v87.3h-15.64V1.17h15.64Z" fill="#020617"/><path d="M304.69,89.82c-6.76,0-12.63-1.05-17.61-3.16s-8.88-5.18-11.69-9.2-4.34-8.91-4.57-14.65h15.41c.27,3.05,1.23,5.59,2.87,7.62s3.81,3.54,6.5,4.54,5.68,1.49,8.96,1.49,6.47-.53,9.11-1.58,4.7-2.53,6.18-4.42c1.48-1.89,2.23-4.09,2.23-6.59,0-2.27-.65-4.14-1.96-5.62-1.31-1.48-3.14-2.74-5.51-3.78-2.36-1.03-5.13-1.94-8.29-2.72l-9.9-2.58c-7.3-1.88-13-4.71-17.08-8.5-4.08-3.79-6.12-8.77-6.12-14.94,0-5.16,1.39-9.67,4.16-13.54,2.77-3.87,6.56-6.86,11.37-8.99,4.8-2.13,10.25-3.19,16.35-3.19s11.66,1.07,16.35,3.22c4.69,2.15,8.35,5.12,10.99,8.91,2.64,3.79,4.01,8.11,4.13,12.95h-15.18c-.39-3.75-2.06-6.65-5.01-8.7-2.95-2.05-6.79-3.08-11.51-3.08-3.28,0-6.1.5-8.47,1.49-2.36,1-4.18,2.35-5.45,4.07-1.27,1.72-1.9,3.69-1.9,5.92,0,2.42.75,4.41,2.26,5.98,1.5,1.56,3.4,2.81,5.68,3.75s4.6,1.7,6.94,2.29l8.14,2.11c3.24.78,6.39,1.82,9.43,3.11s5.79,2.92,8.23,4.89c2.44,1.97,4.38,4.37,5.83,7.18,1.44,2.81,2.17,6.11,2.17,9.9,0,5.12-1.31,9.62-3.93,13.51-2.62,3.89-6.39,6.91-11.31,9.08s-10.86,3.25-17.81,3.25Z" fill="#020617"/><path d="M347.34,14.36V1.17h69.49v13.18h-26.89v74.12h-15.64V14.36h-26.95Z" fill="#020617"/><path d="M430.49,88.48V1.17h32.64c6.68,0,12.3,1.17,16.88,3.52s8.03,5.62,10.37,9.81c2.34,4.2,3.52,9.07,3.52,14.62s-1.18,10.37-3.54,14.47c-2.36,4.1-5.85,7.27-10.46,9.49-4.61,2.23-10.27,3.34-16.99,3.34h-23.32v-12.95h21.27c3.95,0,7.17-.56,9.67-1.67,2.5-1.11,4.36-2.74,5.57-4.89,1.21-2.15,1.82-4.75,1.82-7.79s-.61-5.79-1.82-8c-1.21-2.21-3.08-3.9-5.6-5.07s-5.77-1.76-9.76-1.76h-14.59v74.18h-15.64ZM479.59,88.48l-21.21-39.61h17.11l21.62,39.61h-17.52Z" fill="#020617"/><path d="M531.86,88.48v-33.81L499.63,1.17h18.28l15.59,27.54c1.64,2.89,3.11,5.7,4.39,8.44,1.29,2.73,2.62,6.07,3.98,10.02h-4.1c1.33-3.98,2.63-7.36,3.9-10.14,1.27-2.77,2.69-5.55,4.25-8.32l15.29-27.54h18.16l-31.88,53.5v33.81h-15.64Z" fill="#020617"/></svg>