<?xml version="1.0" encoding="UTF-8"?><svg id="a" xmlns="http://www.w3.org/2000/svg" width="583.65" height="90.49" viewBox="0 0 583.65 90.49"><path d="M0,89.13V1.18h32.88c10.11,0,17.81,2.6,23.08,7.79,5.27,5.19,7.91,11.98,7.91,20.36,0,5.94-1.34,11.06-4.01,15.35-2.68,4.29-6.61,7.46-11.81,9.5l19.07,34.94h-17.65l-17.29-32.29H15.76v32.29H0ZM15.76,43.8h14.82c5.94,0,10.29-1.25,13.04-3.75,2.75-2.5,4.13-6.07,4.13-10.71s-1.38-8.39-4.13-11.01c-2.75-2.62-7.14-3.93-13.16-3.93h-14.7v29.4Z" fill="#f8fafc"/><path d="M78.86,89.13V1.18h57.14v13.28h-41.38v23.73h38.31v13.1h-38.31v24.56h41.61v13.28h-57.37Z" fill="#f8fafc"/><path d="M190.01,90.31c-8.11,0-15.21-1.82-21.31-5.46-6.1-3.64-10.86-8.83-14.28-15.58-3.42-6.75-5.14-14.75-5.14-24s1.76-17.54,5.28-24.29c3.52-6.75,8.31-11.93,14.37-15.55,6.06-3.62,12.93-5.43,20.6-5.43,6.45,0,12.31,1.24,17.56,3.72,5.25,2.48,9.58,5.92,12.99,10.33,3.4,4.41,5.56,9.48,6.46,15.23h-16.11c-1.42-4.68-3.89-8.38-7.41-11.1-3.52-2.71-7.96-4.07-13.31-4.07-4.72,0-8.94,1.2-12.66,3.6-3.72,2.4-6.64,5.91-8.77,10.54-2.12,4.62-3.19,10.26-3.19,16.91,0,9.96,2.31,17.62,6.94,22.99,4.62,5.37,10.63,8.06,18.03,8.06,6.61,0,11.88-1.86,15.82-5.58,3.93-3.72,5.98-8.75,6.14-15.08h-20.31v-12.4h35.59v10.57c0,7.52-1.6,14.02-4.81,19.51-3.21,5.49-7.61,9.71-13.22,12.66-5.61,2.95-12.03,4.43-19.27,4.43Z" fill="#f8fafc"/><path d="M258.36,1.18v87.95h-15.76V1.18h15.76Z" fill="#f8fafc"/><path d="M306.94,90.49c-10.23,0-18.39-2.36-24.47-7.08-6.08-4.72-9.3-11.43-9.65-20.13h15.52c.35,4.64,2.28,8.1,5.78,10.36,3.5,2.26,7.73,3.39,12.69,3.39s9.43-1.17,12.72-3.51c3.29-2.34,4.93-5.4,4.93-9.18,0-3.42-1.46-6.01-4.37-7.76-2.91-1.75-6.75-3.24-11.51-4.46l-9.98-2.6c-7.36-1.89-13.09-4.74-17.21-8.56-4.11-3.82-6.17-8.83-6.17-15.05,0-5.19,1.4-9.73,4.19-13.61,2.79-3.88,6.61-6.9,11.45-9.06,4.84-2.16,10.33-3.25,16.47-3.25s11.74,1.08,16.44,3.25c4.7,2.16,8.39,5.16,11.07,8.97,2.68,3.82,4.07,8.17,4.19,13.04h-15.29c-.39-3.74-2.08-6.65-5.05-8.74-2.97-2.09-6.84-3.13-11.6-3.13s-8.85,1.09-11.69,3.28-4.25,4.95-4.25,8.29c0,2.48.76,4.5,2.27,6.05,1.51,1.56,3.42,2.8,5.73,3.75,2.3.94,4.63,1.71,7,2.3l8.2,2.12c4.33,1.06,8.47,2.59,12.43,4.57,3.95,1.99,7.18,4.65,9.68,8,2.5,3.35,3.75,7.58,3.75,12.69s-1.32,9.69-3.96,13.61c-2.64,3.92-6.43,6.96-11.39,9.15-4.96,2.18-10.94,3.28-17.94,3.28Z" fill="#f8fafc"/><path d="M349.91,14.46V1.18h70.01v13.28h-27.09v74.67h-15.76V14.46h-27.15Z" fill="#f8fafc"/><path d="M433.67,89.13V1.18h32.88c10.11,0,17.81,2.6,23.08,7.79s7.91,11.98,7.91,20.36c0,5.94-1.34,11.06-4.01,15.35-2.68,4.29-6.61,7.46-11.81,9.5l19.07,34.94h-17.65l-17.29-32.29h-16.41v32.29h-15.76ZM449.43,43.8h14.82c5.94,0,10.29-1.25,13.04-3.75,2.75-2.5,4.13-6.07,4.13-10.71s-1.38-8.39-4.13-11.01c-2.75-2.62-7.14-3.93-13.16-3.93h-14.7v29.4Z" fill="#f8fafc"/><path d="M535.78,89.13v-34.06L503.32,1.18h18.42l15.7,27.74c1.22,2.16,2.34,4.26,3.36,6.29,1.02,2.03,2.01,4.26,2.95,6.7.98-2.52,1.98-4.79,2.98-6.82,1-2.03,2.08-4.08,3.22-6.17l15.41-27.74h18.3l-32.11,53.89v34.06h-15.76Z" fill="#f8fafc"/></svg>